<svg width="90" height="100" viewBox="0 0 90 100" fill="none" xmlns="http://www.w3.org/2000/svg">
<path opacity="0.4" d="M72.4684 39.4507C72.4684 39.4507 70.4322 67.5132 69.2509 79.334C68.6884 84.9799 65.5497 88.2882 60.4084 88.3924C50.6247 88.5882 40.8297 88.6007 31.0497 88.3715C26.1034 88.259 23.0172 84.909 22.4659 79.3632C21.2772 67.4382 19.2522 39.4507 19.2522 39.4507" stroke="#200E32" stroke-width="1.5" stroke-linecap="round" stroke-linejoin="round"/>
<path d="M77.6557 25.9986H14.0632" stroke="#200E32" stroke-width="2" stroke-linecap="round" stroke-linejoin="round"/>
<path d="M65.4022 25.9987C62.4584 25.9987 59.9234 23.6862 59.3459 20.482L58.4347 15.4153C57.8722 13.0778 55.9672 11.4612 53.7959 11.4612H37.9222C35.7509 11.4612 33.8459 13.0778 33.2834 15.4153L32.3722 20.482C31.7947 23.6862 29.2597 25.9987 26.3159 25.9987" stroke="#200E32" stroke-width="1.5" stroke-linecap="round" stroke-linejoin="round"/>
</svg>
