<svg width="90" height="100" viewBox="0 0 90 100" fill="none" xmlns="http://www.w3.org/2000/svg">
<path opacity="0.4" d="M72.4684 39.4509C72.4684 39.4509 70.4322 67.5134 69.2509 79.3343C68.6884 84.9801 65.5497 88.2884 60.4084 88.3926C50.6247 88.5884 40.8297 88.6009 31.0497 88.3718C26.1034 88.2593 23.0172 84.9093 22.4659 79.3634C21.2772 67.4384 19.2522 39.4509 19.2522 39.4509" stroke="#200E32" stroke-width="1.5" stroke-linecap="round" stroke-linejoin="round"/>
<path d="M76.8279 38.5699H13.2354" stroke="#200E32" stroke-width="2" stroke-linecap="round" stroke-linejoin="round"/>
<path d="M65.557 38.8617C62.6132 38.8617 60.0782 36.5492 59.5007 33.3451L58.5895 28.2784C58.027 25.9409 56.122 24.3242 53.9507 24.3242H38.077C35.9057 24.3242 34.0007 25.9409 33.4382 28.2784L32.527 33.3451C31.9495 36.5492 29.4145 38.8617 26.4707 38.8617" stroke="#200E32" stroke-width="1.5" stroke-linecap="round" stroke-linejoin="round"/>
</svg>
