<svg width="200" height="168" viewBox="0 0 200 168" fill="none" xmlns="http://www.w3.org/2000/svg">
<g clip-path="url(#clip0_1_4)">
<path d="M134.293 92.0021C124.972 85.8219 112.331 82.3499 99.1503 82.3499C85.9694 82.3499 75.0322 84.6921 65.7118 90.8723" stroke="black"/>
<ellipse cx="71.7232" cy="72.0808" rx="8.70435" ry="5.77177" fill="black"/>
<ellipse cx="128.277" cy="72.0808" rx="8.70435" ry="5.77177" fill="black"/>
<path d="M171.989 27.6136L171.989 27.6138C173.65 28.7153 174.5 30.1561 174.5 31.5745V32.6545H125.5V0.5H127.383C129.804 0.5 132.086 1.12829 133.747 2.22972C133.747 2.22976 133.747 2.2298 133.747 2.22985L171.989 27.6136ZM34.375 0.5H112V35.2267C112 37.1579 113.191 38.8489 114.978 40.0337C116.769 41.2216 119.212 41.9431 121.875 41.9431H174.5V126.402C174.5 127.905 173.589 129.321 171.984 130.385C170.383 131.447 168.139 132.118 165.625 132.118H34.375C31.861 132.118 29.6166 131.447 28.0156 130.385C26.4114 129.321 25.5 127.905 25.5 126.402V6.21647C25.5 4.71337 26.4114 3.29677 28.0156 2.23309C29.6166 1.17144 31.861 0.5 34.375 0.5Z" stroke="black"/>
</g>
<path d="M77.66 161H75.266L71.262 154.938V161H68.868V151.172H71.262L75.266 157.262V151.172H77.66V161ZM82.9513 161.112C82.186 161.112 81.4953 160.949 80.8793 160.622C80.2727 160.295 79.792 159.829 79.4373 159.222C79.092 158.615 78.9193 157.906 78.9193 157.094C78.9193 156.291 79.0967 155.587 79.4513 154.98C79.806 154.364 80.2913 153.893 80.9073 153.566C81.5233 153.239 82.214 153.076 82.9793 153.076C83.7447 153.076 84.4353 153.239 85.0513 153.566C85.6673 153.893 86.1527 154.364 86.5073 154.98C86.862 155.587 87.0393 156.291 87.0393 157.094C87.0393 157.897 86.8573 158.606 86.4933 159.222C86.1387 159.829 85.6487 160.295 85.0233 160.622C84.4073 160.949 83.7167 161.112 82.9513 161.112ZM82.9513 159.04C83.4087 159.04 83.796 158.872 84.1133 158.536C84.44 158.2 84.6033 157.719 84.6033 157.094C84.6033 156.469 84.4447 155.988 84.1273 155.652C83.8193 155.316 83.4367 155.148 82.9793 155.148C82.5127 155.148 82.1253 155.316 81.8173 155.652C81.5093 155.979 81.3553 156.459 81.3553 157.094C81.3553 157.719 81.5047 158.2 81.8033 158.536C82.1113 158.872 82.494 159.04 82.9513 159.04ZM94.9582 151.172C95.9942 151.172 96.8995 151.377 97.6742 151.788C98.4489 152.199 99.0462 152.777 99.4662 153.524C99.8955 154.261 100.11 155.115 100.11 156.086C100.11 157.047 99.8955 157.901 99.4662 158.648C99.0462 159.395 98.4442 159.973 97.6602 160.384C96.8855 160.795 95.9849 161 94.9582 161H91.2762V151.172H94.9582ZM94.8042 158.928C95.7095 158.928 96.4142 158.681 96.9182 158.186C97.4222 157.691 97.6742 156.991 97.6742 156.086C97.6742 155.181 97.4222 154.476 96.9182 153.972C96.4142 153.468 95.7095 153.216 94.8042 153.216H93.6702V158.928H94.8042ZM100.972 157.08C100.972 156.277 101.121 155.573 101.42 154.966C101.728 154.359 102.143 153.893 102.666 153.566C103.189 153.239 103.772 153.076 104.416 153.076C104.967 153.076 105.447 153.188 105.858 153.412C106.278 153.636 106.6 153.93 106.824 154.294V153.188H109.218V161H106.824V159.894C106.591 160.258 106.264 160.552 105.844 160.776C105.433 161 104.953 161.112 104.402 161.112C103.767 161.112 103.189 160.949 102.666 160.622C102.143 160.286 101.728 159.815 101.42 159.208C101.121 158.592 100.972 157.883 100.972 157.08ZM106.824 157.094C106.824 156.497 106.656 156.025 106.32 155.68C105.993 155.335 105.592 155.162 105.116 155.162C104.64 155.162 104.234 155.335 103.898 155.68C103.571 156.016 103.408 156.483 103.408 157.08C103.408 157.677 103.571 158.153 103.898 158.508C104.234 158.853 104.64 159.026 105.116 159.026C105.592 159.026 105.993 158.853 106.32 158.508C106.656 158.163 106.824 157.691 106.824 157.094ZM115.304 158.97V161H114.086C113.218 161 112.541 160.79 112.056 160.37C111.571 159.941 111.328 159.245 111.328 158.284V155.176H110.376V153.188H111.328V151.284H113.722V153.188H115.29V155.176H113.722V158.312C113.722 158.545 113.778 158.713 113.89 158.816C114.002 158.919 114.189 158.97 114.45 158.97H115.304ZM116.162 157.08C116.162 156.277 116.311 155.573 116.61 154.966C116.918 154.359 117.333 153.893 117.856 153.566C118.378 153.239 118.962 153.076 119.606 153.076C120.156 153.076 120.637 153.188 121.048 153.412C121.468 153.636 121.79 153.93 122.014 154.294V153.188H124.408V161H122.014V159.894C121.78 160.258 121.454 160.552 121.034 160.776C120.623 161 120.142 161.112 119.592 161.112C118.957 161.112 118.378 160.949 117.856 160.622C117.333 160.286 116.918 159.815 116.61 159.208C116.311 158.592 116.162 157.883 116.162 157.08ZM122.014 157.094C122.014 156.497 121.846 156.025 121.51 155.68C121.183 155.335 120.782 155.162 120.306 155.162C119.83 155.162 119.424 155.335 119.088 155.68C118.761 156.016 118.598 156.483 118.598 157.08C118.598 157.677 118.761 158.153 119.088 158.508C119.424 158.853 119.83 159.026 120.306 159.026C120.782 159.026 121.183 158.853 121.51 158.508C121.846 158.163 122.014 157.691 122.014 157.094Z" fill="black"/>
<defs>
<clipPath id="clip0_1_4">
<rect width="200" height="132.618" fill="white"/>
</clipPath>
</defs>
</svg>
