<svg width="150" height="150" viewBox="0 0 150 150" fill="none" xmlns="http://www.w3.org/2000/svg">
<g clip-path="url(#clip0_505_3467)">
<path opacity="0.4" d="M102.591 7.41667H47.4158C27.4025 7.41667 15.75 19.3575 15.75 39.8179V109.115C15.75 129.911 27.4025 141.583 47.4158 141.583H102.591C122.927 141.583 134.25 129.911 134.25 109.115V39.8179C134.25 19.3575 122.927 7.41667 102.591 7.41667" fill="#200E32" fill-opacity="0.62"/>
<path fill-rule="evenodd" clip-rule="evenodd" d="M49.1933 38.6104V38.6775C46.3559 38.6775 44.0583 41.0254 44.0583 43.91C44.0583 46.7946 46.3559 49.1425 49.1933 49.1425H68.8709C71.7083 49.1425 74.0125 46.7946 74.0125 43.8362C74.0125 40.9583 71.7083 38.6104 68.8709 38.6104H49.1933ZM100.807 79.4642H49.1933C46.3559 79.4642 44.0583 77.1162 44.0583 74.2317C44.0583 71.3471 46.3559 68.9925 49.1933 68.9925H100.807C103.637 68.9925 105.942 71.3471 105.942 74.2317C105.942 77.1162 103.637 79.4642 100.807 79.4642ZM100.807 110.121H49.1933C47.2183 110.39 45.3092 109.383 44.2558 107.706C43.2025 105.962 43.2025 103.748 44.2558 102.071C45.3092 100.327 47.2183 99.3879 49.1933 99.5892H100.807C103.433 99.8575 105.415 102.138 105.415 104.889C105.415 107.565 103.433 109.853 100.807 110.121Z" fill="#200E32" fill-opacity="0.62"/>
<g filter="url(#filter0_d_505_3467)">
<path d="M107.156 133C106.525 133 105.893 132.699 105.411 132.094L98.7229 123.692C97.759 122.482 97.759 120.52 98.7229 119.313C99.6869 118.102 101.245 118.099 102.209 119.309L107.156 125.523L118.791 110.908C119.755 109.697 121.313 109.697 122.277 110.908C123.241 112.119 123.241 114.08 122.277 115.291L108.901 132.094C108.419 132.699 107.787 133 107.156 133" fill="#80DF07"/>
</g>
</g>
<defs>
<filter id="filter0_d_505_3467" x="94" y="110" width="33" height="31" filterUnits="userSpaceOnUse" color-interpolation-filters="sRGB">
<feFlood flood-opacity="0" result="BackgroundImageFix"/>
<feColorMatrix in="SourceAlpha" type="matrix" values="0 0 0 0 0 0 0 0 0 0 0 0 0 0 0 0 0 0 127 0" result="hardAlpha"/>
<feOffset dy="4"/>
<feGaussianBlur stdDeviation="2"/>
<feComposite in2="hardAlpha" operator="out"/>
<feColorMatrix type="matrix" values="0 0 0 0 0 0 0 0 0 0 0 0 0 0 0 0 0 0 0.25 0"/>
<feBlend mode="normal" in2="BackgroundImageFix" result="effect1_dropShadow_505_3467"/>
<feBlend mode="normal" in="SourceGraphic" in2="effect1_dropShadow_505_3467" result="shape"/>
</filter>
<clipPath id="clip0_505_3467">
<rect width="150" height="150" rx="5" fill="white"/>
</clipPath>
</defs>
</svg>
