<svg width="150" height="150" viewBox="0 0 150 150" fill="none" xmlns="http://www.w3.org/2000/svg">
<path opacity="0.4" d="M102.125 12.4987H47.9375C26.75 12.4987 12.5 27.3737 12.5 49.4987V100.561C12.5 122.624 26.75 137.499 47.9375 137.499H102.125C123.313 137.499 137.5 122.624 137.5 100.561V49.4987C137.5 27.3737 123.313 12.4987 102.125 12.4987" fill="#200E32"/>
<path d="M97.3337 98.8394C96.515 98.8394 95.69 98.6269 94.9337 98.1831L70.3962 83.5456C68.9837 82.6956 68.115 81.1644 68.115 79.5144V47.9706C68.115 45.3831 70.215 43.2831 72.8025 43.2831C75.39 43.2831 77.49 45.3831 77.49 47.9706V76.8519L99.74 90.1206C101.959 91.4519 102.69 94.3269 101.365 96.5519C100.484 98.0206 98.9275 98.8394 97.3337 98.8394" fill="#80DF07"/>
</svg>
