<svg width="150" height="150" viewBox="0 0 150 150" fill="none" xmlns="http://www.w3.org/2000/svg">
<path opacity="0.4" d="M124.954 118.458H89.3643C85.892 118.458 83.0679 121.327 83.0679 124.854C83.0679 128.388 85.892 131.25 89.3643 131.25H124.954C128.426 131.25 131.25 128.388 131.25 124.854C131.25 121.327 128.426 118.458 124.954 118.458" fill="#200E32"/>
<path d="M64.4314 43.1493L98.1555 70.3998C98.969 71.0515 99.1079 72.2474 98.473 73.0805L58.4921 125.176C55.9789 128.395 52.2751 130.215 48.3068 130.283L26.481 130.551C25.317 130.565 24.2984 129.758 24.0339 128.603L19.0735 107.036C18.2137 103.072 19.0735 98.9739 21.5867 95.8162L61.766 43.4717C62.4142 42.6319 63.6113 42.4841 64.4314 43.1493" fill="#80DF07"/>
<path opacity="0.4" d="M113.254 54.159L106.752 62.275C106.097 63.1014 104.92 63.2358 104.107 62.5774C96.203 56.1813 75.9645 39.7678 70.3494 35.2193C69.5292 34.5475 69.4168 33.3515 70.0782 32.5184L76.3481 24.7316C82.0361 17.4084 91.9569 16.7365 99.9597 23.1191L109.153 30.4424C112.923 33.3986 115.436 37.2954 116.296 41.3937C117.288 45.9019 116.23 50.3294 113.254 54.159" fill="#200E32"/>
</svg>
